# xmcd CD database file
#
# Track frame offsets:
#	150
#	14000
#	28115
#	40330
#	55123
#	71715
#	88377
#	104797
#	117765
#	131311
#	146773
#	159946
#	172323
#	188181
#	201907
#	215101
#	231314
#	245947
#	259179
#	274667
#	288823
#	303205
#	319388
#	335978
#
# Disc length: 4688 seconds
#
# Revision: 1
# Processed by: cddbd v1.5.2PL0 Copyright (c) Steve Scherf et al.
# Submitted via: CDex 1.51
#
DISCID=87124e18
DTITLE=Vários - Sucessos Sertanejos 2
DYEAR=1900
DGENRE=Country
TTITLE0=Apologia ao Jumento
TTITLE1=Amor Fingido
TTITLE2=Conselho de Amigo
TTITLE3=Silêncio
TTITLE4=Amor e Felicidade
TTITLE5=Sofrendo Por Ti
TTITLE6=Arapuca
TTITLE7=Timbó com Fumo
TTITLE8=Velho Marrudo
TTITLE9=Lá Onde eu Moro
TTITLE10=João Bobo
TTITLE11=O Gavião e a Andorinha
TTITLE12=Empreitada Perigosa
TTITLE13=Amargurado
TTITLE14=Pé de Guerra
TTITLE15=Boiadeiro de Palavra
TTITLE16=Cavalo Zaino
TTITLE17=Mestre Carreiro
TTITLE18=Dona Felicidade
TTITLE19=Boiadeiro de Goiás
TTITLE20=Música-21
TTITLE21=Música-22
TTITLE22=Música-23
TTITLE23=Música-24
EXTD=
EXTT0=
EXTT1=
EXTT2=
EXTT3=
EXTT4=
EXTT5=
EXTT6=
EXTT7=
EXTT8=
EXTT9=
EXTT10=
EXTT11=
EXTT12=
EXTT13=
EXTT14=
EXTT15=
EXTT16=
EXTT17=
EXTT18=
EXTT19=
EXTT20=
EXTT21=
EXTT22=
EXTT23=
PLAYORDER=
